PathFileType	4	(X/Y/Z)	/Users/itak/Documents/Research/Walk-IL/dataset/trc/00493_00167.trc
DataRate	CameraRate	NumFrames	NumMarkers	Units	OrigDataRate	OrigDataStartFrame	OrigNumFrames
100.000000	100.000000	4	53	mm	100.000000	149	596
Frame#	Time	RPSI			LPSI			L3			STRN			T10			C7			CLAV			RBAK			LBAK			LSHO			LUPA			LAEL			LAOL			LWTS			LWPS			LFRA			LIFD			LHPS			LHTS			RSHO			RUPA			RAEL			RAOL			RWTS			RWPS			RFRA			RIFD			RHTS			RHPS			RBHD			LFHD			RFHD			LBHD			LHIP			RHIP			RASI			LASI			LKNE			LTHI			LANK			LTIP			LTOE			LMT1			LMT5			LHEE			RKNE			RTHI			RANK			RTIP			RTOE			RMT1			RMT5			RHEE			
		X1	Y1	Z1	X2	Y2	Z2	X3	Y3	Z3	X4	Y4	Z4	X5	Y5	Z5	X6	Y6	Z6	X7	Y7	Z7	X8	Y8	Z8	X9	Y9	Z9	X10	Y10	Z10	X11	Y11	Z11	X12	Y12	Z12	X13	Y13	Z13	X14	Y14	Z14	X15	Y15	Z15	X16	Y16	Z16	X17	Y17	Z17	X18	Y18	Z18	X19	Y19	Z19	X20	Y20	Z20	X21	Y21	Z21	X22	Y22	Z22	X23	Y23	Z23	X24	Y24	Z24	X25	Y25	Z25	X26	Y26	Z26	X27	Y27	Z27	X28	Y28	Z28	X29	Y29	Z29	X30	Y30	Z30	X31	Y31	Z31	X32	Y32	Z32	X33	Y33	Z33	X34	Y34	Z34	X35	Y35	Z35	X36	Y36	Z36	X37	Y37	Z37	X38	Y38	Z38	X39	Y39	Z39	X40	Y40	Z40	X41	Y41	Z41	X42	Y42	Z42	X43	Y43	Z43	X44	Y44	Z44	X45	Y45	Z45	X46	Y46	Z46	X47	Y47	Z47	X48	Y48	Z48	X49	Y49	Z49	X50	Y50	Z50	X51	Y51	Z51	X52	Y52	Z52	X53	Y53	Z53	

150	1.49	-1580.523193359375	969.3067626953125	-336.0226440429688	-1497.843505859375	969.72265625	-451.7930908203125	-1533.59130859375	1060.066772460938	-369.4680786132812	-1293.76953125	1252.14892578125	-238.0204162597656	-1544.435668945312	1185.293701171875	-377.2453308105469	-1492.021240234375	1453.39208984375	-331.9130859375	-1321.462890625	1365.670532226562	-258.2217407226562	-1591.240356445312	1334.103393554688	-278.3079223632812	-1475.001342773438	1405.014282226562	-435.1850891113281	-1348.03662109375	1425.179443359375	-457.6356506347656	-1308.226440429688	1306.273681640625	-548.2205200195312	-1268.342895507812	1089.482299804688	-561.4111938476562	-1369.917358398438	1073.845703125	-547.687744140625	-1222.015869140625	888.7973022460938	-476.6409606933594	-1230.000610351562	872.8680419921875	-548.968017578125	-1243.862670898438	1002.213134765625	-556.686767578125	-1212.236572265625	725.603271484375	-476.7442626953125	-1220.449584960938	794.6976928710938	-543.286865234375	-1202.963989257812	802.758544921875	-474.1682434082031	-1504.948364257812	1421.765380859375	-159.0083465576172	-1555.721435546875	1361.186157226562	-99.87325286865234	-1571.529907226562	1073.9560546875	-42.91554641723633	-1599.924682617188	1055.4482421875	-101.7580871582031	-1452.6435546875	872.3412475585938	-40.93742370605469	-1535.427368164062	855.5281982421875	-13.19313812255859	-1570.245971679688	1015.705749511719	-31.60329818725586	-1448.150146484375	716.2473754882812	-33.36343765258789	-1439.66259765625	775.528076171875	-24.16304016113281	-1515.344116210938	768.1743774414062	-9.354994773864746	-1459.16845703125	1651.564331054688	-220.3689270019531	-1269.007934570312	1670.256958007812	-301.7337341308594	-1327.654174804688	1672.930541992188	-184.4655151367188	-1395.434326171875	1651.976318359375	-386.5452880859375	-1325.307739257812	867.4300537109375	-479.6239624023438	-1566.429809570312	857.9065551757812	-159.8963623046875	-1440.802124023438	894.57470703125	-152.3960113525391	-1283.9482421875	897.2333984375	-357.5341796875	-1340.333740234375	447.501708984375	-465.4999084472656	-1307.036499023438	598.8857421875	-464.8121948242188	-1435.980834960938	44.51333618164062	-532.6890869140625	-1354.435791015625	298.7886962890625	-494.9438171386719	-1278.94140625	41.86752319335938	-344.9903869628906	-1357.749145507812	50.82662582397461	-367.2345275878906	-1298.780517578125	49.01670455932617	-462.2730712890625	-1506.8583984375	49.71957778930664	-500.6439819335938	-1534.6962890625	466.0697937011719	-173.9467315673828	-1538.9794921875	722.7398071289062	-129.5272827148438	-1620.948974609375	40.97926712036133	-215.4373626708984	-1550.652099609375	322.8627319335938	-170.0875091552734	-1404.500854492188	47.21010971069336	-160.2832794189453	-1446.483764648438	56.65240859985352	-217.7473297119141	-1514.246459960938	46.3986701965332	-131.1633758544922	-1654.646850585938	34.44635009765625	-286.8439636230469	
151	1.5	-1580.134521484375	969.38330078125	-335.1166687011719	-1497.587036132812	970.0848999023438	-450.9016723632812	-1533.050659179688	1060.111694335938	-368.5987548828125	-1293.208984375	1251.836669921875	-236.7772674560547	-1543.831176757812	1185.352416992188	-376.2669982910156	-1491.140747070312	1453.37646484375	-330.7151794433594	-1320.744018554688	1365.404418945312	-256.9224243164062	-1590.553344726562	1334.165771484375	-277.2733764648438	-1474.055419921875	1405.021850585938	-434.0393676757812	-1347.075439453125	1425.067749023438	-456.3107604980469	-1307.327758789062	1306.206176757812	-546.9589233398438	-1267.612548828125	1089.427734375	-560.3634643554688	-1369.140014648438	1073.826049804688	-546.7119750976562	-1221.386474609375	888.6941528320312	-475.6653137207031	-1229.378295898438	872.7745361328125	-547.9981079101562	-1243.123779296875	1002.125427246094	-555.6541748046875	-1211.79833984375	725.4429931640625	-475.8524475097656	-1219.97119140625	794.6455078125	-542.3690185546875	-1202.444458007812	802.5897827148438	-473.2286376953125	-1504.251098632812	1421.671875	-157.8538665771484	-1555.143676757812	1361.113525390625	-98.79622650146484	-1571.323364257812	1073.846069335938	-42.05559921264648	-1599.686767578125	1055.40869140625	-100.9411087036133	-1452.571533203125	872.1478881835938	-40.18258285522461	-1535.384155273438	855.373046875	-12.46998023986816	-1570.066040039062	1015.5810546875	-30.8254451751709	-1448.186401367188	716.031494140625	-32.7382926940918	-1439.660278320312	775.2998657226562	-23.47315406799316	-1515.368530273438	768.0101928710938	-8.69483757019043	-1458.185424804688	1651.522094726562	-219.1722564697266	-1268.058715820312	1670.024169921875	-300.6011962890625	-1326.618408203125	1672.738403320312	-183.3392791748047	-1394.536865234375	1651.78564453125	-385.3653564453125	-1324.954223632812	867.344970703125	-478.6771545410156	-1566.230224609375	857.7694091796875	-159.0394134521484	-1440.53759765625	894.3986206054688	-151.5001678466797	-1283.622802734375	896.9852905273438	-356.556396484375	-1340.470458984375	447.4511413574219	-465.2404174804688	-1306.974365234375	598.7864379882812	-464.3785400390625	-1435.946166992188	44.48441696166992	-532.7021484375	-1354.453857421875	298.8501281738281	-494.8502502441406	-1278.921875	41.90435791015625	-345.0341796875	-1357.73779296875	50.84306716918945	-367.2647399902344	-1298.782592773438	48.99733734130859	-462.3173828125	-1506.798706054688	49.64564514160156	-500.6534118652344	-1534.323974609375	465.8751220703125	-173.5965270996094	-1538.7880859375	722.5188598632812	-128.8258972167969	-1620.885864257812	41.07866287231445	-215.547607421875	-1550.278076171875	322.6519165039062	-169.851806640625	-1404.472290039062	47.24334716796875	-160.3243865966797	-1446.410888671875	56.56319427490234	-217.8991241455078	-1514.138549804688	46.4800910949707	-131.3548431396484	-1654.671508789062	34.54333877563477	-286.9649353027344	
152	1.51	-1579.748657226562	969.4495849609375	-334.1634216308594	-1497.399536132812	970.5177001953125	-449.9945678710938	-1532.4990234375	1060.144165039062	-367.7033386230469	-1292.646362304688	1251.511962890625	-235.4925079345703	-1543.212646484375	1185.394775390625	-375.2907104492188	-1490.244506835938	1453.345092773438	-329.5119018554688	-1320.020263671875	1365.121826171875	-255.5879974365234	-1589.8544921875	1334.21044921875	-276.2388000488281	-1473.081298828125	1405.014404296875	-432.8755798339844	-1346.09619140625	1424.932739257812	-454.9517822265625	-1306.414428710938	1306.113525390625	-545.6635131835938	-1266.903564453125	1089.353393554688	-559.3034057617188	-1368.402099609375	1073.81298828125	-545.7233276367188	-1220.781127929688	888.5656127929688	-474.6619262695312	-1228.781127929688	872.6544799804688	-546.99853515625	-1242.413452148438	1002.020568847656	-554.5989379882812	-1211.400512695312	725.2459716796875	-474.9116516113281	-1219.505493164062	794.5791625976562	-541.4204711914062	-1201.9599609375	802.3968505859375	-472.2555847167969	-1503.558715820312	1421.563598632812	-156.6890258789062	-1554.58349609375	1361.027221679688	-97.70634460449219	-1571.115844726562	1073.721313476562	-41.1898307800293	-1599.453002929688	1055.35546875	-100.1085968017578	-1452.487182617188	871.9474487304688	-39.40748977661133	-1535.327514648438	855.20751953125	-11.73013401031494	-1569.888305664062	1015.442321777344	-30.03269004821777	-1448.204467773438	715.8128051757812	-32.08166122436523	-1439.64892578125	775.0712280273438	-22.75248718261719	-1515.377685546875	767.8426513671875	-8.003622055053711	-1457.208251953125	1651.460571289062	-217.9633941650391	-1267.112426757812	1669.767700195312	-299.4703674316406	-1325.596801757812	1672.542724609375	-182.2022552490234	-1393.646606445312	1651.568115234375	-384.1822204589844	-1324.596923828125	867.2479248046875	-477.6756591796875	-1566.043334960938	857.6036376953125	-158.1436767578125	-1440.322021484375	894.2086181640625	-150.5638427734375	-1283.288330078125	896.7063598632812	-355.5262145996094	-1340.647094726562	447.4108276367188	-464.9685974121094	-1306.9326171875	598.66455078125	-463.8996887207031	-1435.913452148438	44.45656967163086	-532.7158203125	-1354.482788085938	298.9237365722656	-494.73876953125	-1278.888793945312	41.94560623168945	-345.0968627929688	-1357.730224609375	50.85414505004883	-367.2867736816406	-1298.794189453125	48.98248672485352	-462.3658142089844	-1506.781372070312	49.59292602539062	-500.6780700683594	-1533.905517578125	465.6633911132812	-173.2226409912109	-1538.5947265625	722.27001953125	-128.0933990478516	-1620.817138671875	41.18614196777344	-215.6829833984375	-1549.846069335938	322.4112548828125	-169.6071166992188	-1404.444946289062	47.2875862121582	-160.3719940185547	-1446.327758789062	56.45549774169922	-218.0823059082031	-1514.01904296875	46.57352066040039	-131.5775299072266	-1654.69970703125	34.64693069458008	-287.1075439453125	
153	1.52	-1579.369140625	969.4981689453125	-333.1639709472656	-1497.232543945312	970.9605712890625	-449.0511474609375	-1531.943237304688	1060.160278320312	-366.7716674804688	-1292.083374023438	1251.172607421875	-234.1638793945312	-1542.582641601562	1185.41845703125	-374.3130493164062	-1489.332763671875	1453.2939453125	-328.3052062988281	-1319.293334960938	1364.821533203125	-254.2193298339844	-1589.146484375	1334.235717773438	-275.20458984375	-1472.081787109375	1404.984252929688	-431.6895751953125	-1345.095458984375	1424.771240234375	-453.5585021972656	-1305.482177734375	1305.992309570312	-544.3312377929688	-1266.217407226562	1089.25439453125	-558.2315673828125	-1367.713012695312	1073.808471679688	-544.7205200195312	-1220.200439453125	888.4098510742188	-473.63525390625	-1228.201538085938	872.5070190429688	-545.9717407226562	-1241.736450195312	1001.899353027344	-553.525390625	-1211.0390625	725.021484375	-473.9246826171875	-1219.04443359375	794.4951782226562	-540.4415893554688	-1201.5078125	802.1846313476562	-471.2461242675781	-1502.872192382812	1421.43798828125	-155.5160522460938	-1554.043701171875	1360.924438476562	-96.60326385498047	-1570.904663085938	1073.578247070312	-40.3204460144043	-1599.221069335938	1055.283203125	-99.26129913330078	-1452.389282226562	871.7364501953125	-38.60747909545898	-1535.255615234375	855.0306396484375	-10.97413539886475	-1569.712890625	1015.285522460938	-29.22140121459961	-1448.214599609375	715.5883178710938	-31.37598419189453	-1439.630126953125	774.838134765625	-21.99225807189941	-1515.37255859375	767.6680297851562	-7.276009559631348	-1456.237426757812	1651.370727539062	-216.7387390136719	-1266.169555664062	1669.484741210938	-298.3423461914062	-1324.595825195312	1672.34228515625	-181.0520477294922	-1392.760864257812	1651.321533203125	-382.9936828613281	-1324.233276367188	867.12841796875	-476.61865234375	-1565.864990234375	857.4115600585938	-157.2077026367188	-1440.151489257812	893.9998168945312	-149.5834503173828	-1282.9443359375	896.3967895507812	-354.4370727539062	-1340.852294921875	447.3844604492188	-464.6813659667969	-1306.911376953125	598.5262451171875	-463.3682861328125	-1435.890258789062	44.43584823608398	-532.7310791015625	-1354.527465820312	299.0042114257812	-494.6036987304688	-1278.837036132812	41.99225234985352	-345.1819152832031	-1357.724731445312	50.85837554931641	-367.2987670898438	-1298.814208984375	48.97136306762695	-462.4152221679688	-1506.800415039062	49.55881118774414	-500.7135314941406	-1533.442016601562	465.4341430664062	-172.8140869140625	-1538.38720703125	721.9933471679688	-127.3309326171875	-1620.746215820312	41.29932022094727	-215.8388366699219	-1549.357177734375	322.1366271972656	-169.3550262451172	-1404.421020507812	47.34337615966797	-160.4251403808594	-1446.237915039062	56.33131408691406	-218.2903289794922	-1513.890258789062	46.67800521850586	-131.8278961181641	-1654.728515625	34.74370574951172	-287.2619018554688	
